<svg width="401" height="402" viewBox="0 0 401 402" fill="none" xmlns="http://www.w3.org/2000/svg">
<g clip-path="url(#clip0_205_112)">
<path d="M202.612 199.07C536.242 13.9545 387.727 -134.56 202.612 199.07Z" fill="black"/>
<path d="M198.389 199.071C13.2733 -134.56 -135.241 13.955 198.389 199.071Z" fill="black"/>
<path d="M198.388 203.293C13.2729 536.923 -135.242 388.409 198.388 203.293Z" fill="black"/>
<path d="M202.612 203.293C536.242 388.409 387.727 536.923 202.612 203.293Z" fill="black"/>
<path d="M202.209 201.181C202.209 201.181 201.807 200.98 201.606 200.88C201.908 200.276 202.31 199.673 202.612 199.07C202.008 199.371 201.405 199.774 200.802 200.075C200.701 199.874 200.601 199.673 200.5 199.472C200.399 199.673 200.299 199.874 200.198 200.075C199.595 199.774 198.992 199.371 198.388 199.07C198.69 199.673 199.092 200.276 199.394 200.88C199.193 200.98 198.992 201.081 198.791 201.181C198.992 201.282 199.193 201.383 199.394 201.483C199.092 202.086 198.69 202.69 198.388 203.293C198.992 202.991 199.595 202.589 200.198 202.287C200.299 202.489 200.399 202.69 200.5 202.891C200.601 202.69 200.701 202.489 200.802 202.287C201.405 202.589 202.008 202.991 202.612 203.293C202.31 202.69 201.908 202.086 201.606 201.483C201.807 201.383 202.008 201.282 202.209 201.181Z" fill="black"/>
</g>
<defs>
<clipPath id="clip0_205_112">
<rect width="401" height="401" fill="white" transform="translate(0 0.681641)"/>
</clipPath>
</defs>
</svg>
