<svg width="1924" height="11430" viewBox="0 0 1924 11430" fill="none" xmlns="http://www.w3.org/2000/svg">
<g clip-path="url(#clip0_121_240)">
<mask id="mask0_121_240" style="mask-type:luminance" maskUnits="userSpaceOnUse" x="0" y="1" width="1925" height="11430">
<path d="M1924.95 1.98462H0.546875V11430.6H1924.95V1.98462Z" fill="white"/>
</mask>
<g mask="url(#mask0_121_240)">
<path d="M-2914.05 1399.09C-2914.05 1399.09 -2900.32 1459.88 -2875.81 1568.44C-3542.73 2204.23 -3790.2 2705.49 -3703.36 3078.94C-3674.39 3203.42 -3608.31 3313.71 -3508.2 3410.06C-4008.89 4451.18 -2659.39 4789.21 -71.0457 4348.92C565.191 4242.99 -164.755 4978.03 -399.726 5399.15C-530.315 5656.1 -1383.92 6052.29 -1784.34 6401.58C-1742.5 6586.86 -1718.09 6694.94 -1718.09 6694.94L-1974.49 6793.23C-1974.49 6793.23 -1988.22 6732.44 -2012.73 6623.88C-2037.25 6515.32 -1901.07 6326.24 -1503.17 6054.58C-822.236 5616.32 -488.999 5212.71 -462.407 4912.83C-479.602 4836.67 -187.296 4669.43 -161.109 4576.62C-143.51 4445.7 -389.174 4401.95 -704.427 4467.58C-3266.97 5022.08 -3924.96 4405.23 -3701.82 3540.67C-3795.53 3458.56 -3861.29 3364.92 -3896.1 3259.47C-4000.52 2943.19 -3826.43 2520.86 -3293.16 1986.55C-3125.97 1799.33 -3119.96 1720.97 -3132.21 1666.69C-3156.72 1558.13 -3170.45 1497.33 -3170.45 1497.33L-2914.05 1399.04V1399.09Z" fill="#1F1F1F"/>
<path d="M1827.4 -418.28C1827.4 -418.28 1841.13 -357.484 1665.39 -190.673C946.183 322.577 -61.7698 1082.38 -194.546 1462.17C-260.934 1652.06 -108.533 1746.9 329.936 1697.76C483.087 1791.43 685.35 1851.84 974.415 1879.02C3443.25 1953.54 5405.27 2498.25 3414.07 4359.02C3009.54 4764.7 3023.39 4877.58 3023.39 4877.58L2767 4975.87C2767 4975.87 2794.72 4844.61 3217.52 4435.43C4148.45 3614.54 4328.94 2952.17 3815.07 2555.98C3084.6 2035.87 1731.84 1892.23 -164.997 2053.69C-350.066 2069.44 -283.334 1947.29 -313.692 1873.07C-463.926 1822.46 -503.054 1720.54 -453.881 1582.34C-306.34 1167.77 636.035 426.651 1369.42 -77.2356C1584.75 -259.149 1571.02 -319.945 1571.02 -319.945L1827.42 -418.237L1827.4 -418.28Z" fill="#1F1F1F"/>
<path d="M-1267.11 767.825C-1267.11 767.825 -1253.37 828.621 -1518.6 1069.99C-2363.46 1714.11 -2720.96 2225.89 -2668.35 2582.56C-2650.81 2701.43 -2587.72 2803.09 -2494.07 2893.18C-2645.18 3390.51 -3196.19 4291.45 -1544.61 3879.12C20.1917 3500.07 2209.74 2964.34 2081.24 3648.15C1924.08 4204.98 1413.98 4869.51 365.682 5612.87C-95.5518 5955.59 -71.1274 6063.68 -71.1274 6063.68L-569.281 6254.61C-569.281 6254.61 -593.686 6146.53 -237.462 5849.32C525.596 5320.36 1255.14 4792.44 1397.59 4379.21C1525.31 4109.54 1441.76 3948.42 1526.1 3695.4C1616.16 3467.75 1263.62 3368.38 687.982 3533.81C-463.299 3864.71 -1652.23 4237.64 -2331.48 4153.16C-3062.72 4047.19 -3111.07 3624.29 -2796.38 3098.01C-2876.4 2992.51 -2950.46 2889.52 -2979.43 2769.22C-3066.33 2408.33 -2747.39 1891.67 -1934.92 1228.52C-1751.51 1019.6 -1765.24 958.8 -1765.24 958.8L-1267.09 767.868L-1267.11 767.825Z" fill="#1F1F1F"/>
<path d="M1251.98 -197.706C1251.98 -197.706 1265.71 -136.91 1005.24 64.032C77.7097 715.184 -764.618 1403.4 -725.57 1829.36C-717.753 1914.54 -674.696 1989.23 -654.99 2078.76C-740.659 2219.16 -1099.7 2508.52 -787.321 2430.16C3125.89 1592.43 5188.26 2581.44 2959.9 4538.9C2516.53 4950.19 2447.94 5098.19 2447.94 5098.19L2078.51 5239.81C2078.51 5239.81 2178.98 5080.42 2642.83 4669.69C3349.64 4044.9 4004.25 3393.92 3689.79 3045.45C3075.18 2411.95 2003.67 1843.25 -1050.97 2724.34C-1406.75 2819.31 -1229.9 2558.44 -1162.4 2398.49C-1078.27 2249.28 -1087.79 2144.43 -1105.27 2044.5C-1175.18 1644.77 -329.469 850.368 593.018 226.356C896.26 4.78931 882.529 -56.0067 882.529 -56.0067L1251.96 -197.62L1251.98 -197.706Z" fill="#1F1F1F"/>
<path d="M-2509.77 1244.1C-2509.77 1244.1 -2496.04 1304.89 -2471.53 1413.45C-3260.73 2080.61 -3540.73 2590.41 -3442.74 2957.95C-3410.1 3080.45 -3335.43 3187.15 -3225.17 3279.49C-3684.66 4216.59 -2627.5 4721.81 -70.6821 4141.85C1901.88 3689.27 97.6985 5305.05 -1183.24 6201.5C-1338.21 6431.87 -1313.81 6539.95 -1313.81 6539.95L-1442.01 6589.1C-1442.01 6589.1 -1466.41 6481.01 -1347.31 6260.4C-382.532 5475.31 1325.47 4268.88 172.127 4172.96C-452.262 4122.61 -1592.06 4504.3 -2338.02 4541.93C-3647.78 4588.7 -3426.75 3897.03 -3332.25 3318.54C-3432.86 3224.13 -3497.69 3114.84 -3523.27 2990.57C-3600.03 2617.77 -3323.5 2109.91 -2599.73 1462.64C-2624.26 1354.08 -2637.97 1293.29 -2637.97 1293.29L-2509.77 1244.14V1244.1Z" fill="#1F1F1F"/>
<path d="M2274.61 -589.666C2274.61 -589.666 2288.34 -528.869 2312.85 -420.308C1504.2 132.724 368.922 954.528 395.898 1273.61C404.89 1379.97 543.034 1430.5 862.823 1397.49C1501.29 1497.72 2006.93 1648.78 2642.79 1749.92C4217.87 2042.86 5445.39 2675.93 3764.44 4226.64C3446.15 4598.06 3470.57 4706.15 3470.57 4706.15L3342.37 4755.29C3342.37 4755.29 3317.97 4647.21 3662.59 4264.78C5457.23 2519.69 3963.99 1753.94 1503.76 1717.52C1075.9 1702.16 1160.23 1449.14 687.131 1464.84C380.263 1492.89 247.386 1439.52 240.905 1331.08C221.483 1005.83 1339.79 185.365 2184.63 -371.162C2160.13 -479.723 2146.39 -540.52 2146.39 -540.52L2274.59 -589.666H2274.61Z" fill="#1F1F1F"/>
<path d="M-670.524 539.139C-670.524 539.139 -656.793 599.935 -985.068 859.515C-1693.81 1409.48 -2196.15 1968.77 -2294.34 2377.73C-2327.07 2514.04 -2314.9 2633.69 -2250.49 2730.69C-2338.17 3079.71 -2992.77 3730.65 -2209.14 3651C-728.669 3524.96 1600.08 2770.34 2310.46 3201.61C2913.99 3577.26 2261.85 4447.95 1068.59 5328.95C570.172 5703.95 563.955 5753.06 563.955 5753.06L255.568 5997.84C255.568 5997.84 274.707 5815.58 769.195 5450.85C2267.61 4473.32 2526.29 3739.62 2180.28 3251.49C1984.15 3009.38 1307.77 2937.58 338.685 3240.01C-2039.2 3985.87 -3302.29 3821.65 -2390.34 2827.21C-2455.02 2724.09 -2478.46 2605.13 -2458.14 2470.59C-2397.18 2067.07 -1942.41 1523.83 -1219.19 952.586C-913.191 698.184 -926.922 637.388 -926.922 637.388L-670.524 539.096V539.139Z" fill="#1F1F1F"/>
<path d="M-266.22 384.193C-266.22 384.193 -252.489 444.989 -601.037 705.476C-1354.19 1255.19 -1927.99 1857.41 -2029.35 2275.34C-2063.14 2414.67 -2044.44 2533.5 -1978.62 2631.27C-2083.51 2954.54 -2657.06 3546.84 -1786.63 3433.92C-459.289 3256.23 1505.08 2558.48 2221.59 2808.05C3146.11 3143.44 3193.68 3980.48 1517.63 5142.85C1018.97 5531.84 929.738 5680.05 929.738 5680.05L801.539 5729.2C801.539 5729.2 878.945 5585.81 1378.31 5200.97C3182.22 3929.69 3317.22 2857.15 1524.76 2854.44C492.606 2877.61 -1159.38 3497 -2104.73 3486.86C-2813.05 3482.46 -1927.1 2811.81 -2073.67 2539.15C-2112.65 2438.7 -2103.86 2318.97 -2054.79 2185.42C-1907.51 1784.66 -1397.39 1259.2 -725.125 755.485C-380.708 494.178 -394.44 433.382 -394.44 433.382L-266.24 384.236L-266.22 384.193Z" fill="#1F1F1F"/>
<path d="M-2105.46 1089.15C-2105.46 1089.15 -2091.73 1149.95 -2067.23 1258.51C-2885.37 1900.56 -3236.35 2424.64 -3196.45 2806.58C-3183.15 2933.87 -3126.4 3045.41 -3029.06 3140.21C-3093.91 3700.45 -3561 4555.43 -1872.13 4308.15C-871.511 4145.35 858.651 3454.59 1080.6 3810.95C1423.74 4286.4 760.142 5106.31 -666.473 6011.82C-933.929 6276.92 -909.525 6385.01 -909.525 6385.01L-973.625 6409.56C-973.625 6409.56 -998.029 6301.47 -748.76 6042.37C667.588 5114.16 1499.06 4202.3 976.582 3768.02C910.255 3683.1 629.797 3694.02 323.152 3797.75C-2616.03 4772.55 -3652.74 4149.1 -3103.98 3160.27C-3194.93 3064.31 -3245.79 2951.74 -3254.37 2823.67C-3280.14 2439.48 -2925.47 1915.92 -2131.37 1283.1C-2155.89 1174.54 -2169.6 1113.75 -2169.6 1113.75L-2105.5 1089.19L-2105.46 1089.15Z" fill="#1F1F1F"/>
<path d="M2650.87 -733.91C2650.87 -733.91 2664.6 -673.114 2689.1 -564.553C2090.78 -71.4536 923.561 713.458 886.032 1037.24C873.516 1145.16 986.526 1201.85 1287.97 1179.46C1516.42 1147.06 1704.34 1144.04 1808.34 1186.93C2013.46 1260.06 2088.41 1383.08 2336.93 1439.56C3140.25 1655.86 3851.02 1880.02 4362.03 2263.52C4425.5 2335.75 4619.16 2358.1 4682.63 2430.33C5179.29 2750.36 4674.94 3440.3 4074.65 4110.53C3822.44 4453.86 3846.85 4561.95 3846.85 4561.95L3782.75 4586.5C3782.75 4586.5 3758.34 4478.41 4021.44 4130.29C5016.78 3074.75 4809.96 2367.72 3963.64 1960.96C3328.2 1652.75 2148.62 1649.65 1738.22 1248.15C1674.55 1193.4 1444.42 1193.57 1154.91 1216.61C-7.453 1289.66 1801.69 113.437 2625.02 -540.002C2600.5 -648.563 2586.79 -709.359 2586.79 -709.359L2650.89 -733.91H2650.87Z" fill="#1F1F1F"/>
<path d="M3055.17 -888.856C3055.17 -888.856 3068.9 -828.06 3093.41 -719.499C3117.93 -610.938 2794.6 -378.109 2375.84 -93.4595C1763.66 362.575 1106.18 1000.83 1849.27 950.515C2152.37 935.499 2428.51 932.004 2536.62 977.526C3328.94 1238.62 3837.08 1609.43 4313.28 2047.69C4489.34 2200.91 4917.2 2216.27 5049.87 2386.1C5323.81 2763.91 4851.4 3386.41 4404.93 3990.49C4226.72 4298.87 4251.13 4406.96 4251.13 4406.96L4187.03 4431.51C4187.03 4431.51 4162.62 4323.42 4353.16 4008.96C5894.49 2158.93 3898.06 1461.91 2005.25 1014.85C1740.67 1043.84 1577.17 1024.6 1492.82 971.097C1239.76 810.628 1698.91 341.951 2277.25 -57.3011C2695.12 -344.195 3053.81 -586.429 3029.29 -694.991C3004.78 -803.552 2991.05 -864.348 2991.05 -864.348L3055.15 -888.899L3055.17 -888.856Z" fill="#1F1F1F"/>
<path d="M138.062 229.247C138.062 229.247 151.794 290.043 -197.747 542.936C-1041.65 1119.1 -1557.51 1674.85 -1663 2093.82C-1698.16 2233.49 -1687.75 2357.93 -1647.71 2472.1C-1710.13 2728.66 -2303.76 3232.07 -1745.72 3197.51C-583.356 3124.46 1381.01 2426.71 2178.58 2617.6C3372.08 2891.24 3697.24 3704.68 1938.6 4965.9C1446.6 5365.76 1334.02 5525.06 1334.02 5525.06L1205.82 5574.21C1205.82 5574.21 1313.3 5417.71 1808.11 5020.92C2579.96 4395.01 3324.23 3723.49 3058.9 3383.74C2678.09 2950.31 2387.34 2289.28 426.237 2792.65C-331.596 2986.56 -1161.87 3277.2 -1728.52 3273.67C-2205.51 3249.59 -2129.79 2958.47 -1744.6 2627.99C-1738.16 2525.99 -1748.86 2435.38 -1762.08 2349.3C-1828.12 1918.85 -1294.53 1278.96 -327.384 595.016C23.554 339.146 9.82275 278.35 9.82275 278.35L138.022 229.204L138.062 229.247Z" fill="#1F1F1F"/>
<path d="M542.366 74.2583C542.366 74.2583 556.097 135.054 224.845 372.931C-494.184 876.17 -1157.96 1503.03 -1355.65 1940.94C-1421.55 2086.91 -1435.65 2211.87 -1382.77 2304.25C-1432.14 2497.9 -1907.05 2900.65 -1453 2823.2C2271.9 2195.56 5046.61 2580.49 2332.17 4799.87C1853.12 5207.14 1924.14 5292.84 1924.14 5292.84L1847.99 5291.71C1847.99 5291.71 1790.07 5231.74 2271.58 4825.41C2930.03 4274.62 3593.24 3661.79 3423.3 3326.87C3077.69 2631.66 2130.64 1987.67 -958.82 2923.47C-1444.8 3068.37 -1699.05 2986.47 -1643.8 2813.57C-1548.01 2611.34 -1403.1 2417.82 -1476.25 2273.75C-1515.69 2177.48 -1494.16 2053.95 -1424.49 1912.34C-1215.48 1487.5 -573.149 900.161 156.553 400.33C491.977 159.649 478.246 98.8528 478.246 98.8528L542.345 74.3014L542.366 74.2583Z" fill="#1F1F1F"/>
<path d="M4710.05 10207.2C4710.05 10207.2 4696.04 10143.3 4670.99 10029.2C5336.43 9377.69 5582.21 8858.32 5493.57 8465.71C5464.02 8334.84 5397.31 8218.08 5296.59 8115.17C5793.71 7036.07 4440.13 6654.47 1848.66 7061.62C1211.65 7159.26 1939.8 6405.29 2173.39 5969.49C2303.11 5703.31 3156.66 5306.43 3556.32 4949.2C3513.59 4754.47 3488.66 4640.87 3488.66 4640.87L3745.12 4543.35C3745.12 4543.35 3759.13 4607.25 3784.16 4721.34C3809.2 4835.42 3673.6 5030.49 3276.09 5306.51C2595.74 5751.03 2263.62 6166.46 2238.28 6479.72C2255.84 6559.8 1963.7 6728.73 1937.85 6825.29C1920.8 6961.9 2167.11 7012.82 2482.71 6950.64C5047.83 6423.37 5709.78 7082.5 5489.98 7982.53C5584.24 8070.38 5650.53 8169.75 5685.87 8280.77C5791.87 8613.92 5619.27 9052.22 5087.3 9600.29C4920.6 9792.78 4914.91 9874.63 4927.42 9931.67C4952.46 10045.8 4966.49 10109.7 4966.49 10109.7L4710.03 10207.2H4710.05Z" fill="#1F1F1F"/>
<path d="M-32.6873 12010.7C-32.6873 12010.7 -46.7021 11946.8 128.645 11775.9C847.026 11253.7 1853.62 10479.5 1985 10084.9C2050.7 9887.58 1897.57 9785.18 1458.47 9827.51C1304.61 9726.33 1101.68 9658.89 811.948 9624.5C-1662.01 9495.4 -3630.22 8884.85 -1643.24 6978.95C-1239.7 6562.82 -1254.06 6444.38 -1254.06 6444.38L-997.603 6346.86C-997.603 6346.86 -1024.8 6483.64 -1446.65 6903.05C-2375.82 7742.8 -2553.78 8432.14 -2037.19 8857.37C-1303.05 9416.74 52.9612 9595.03 1952.8 9465.37C2138.15 9452.73 2071.82 9579.15 2102.57 9657.47C2253.33 9713.56 2292.96 9821 2244.3 9964.59C2098.27 10395.3 1157.3 11151.3 424.678 11663.4C209.737 11849.3 223.751 11913.2 223.751 11913.2L-32.7075 12010.7H-32.6873Z" fill="#1F1F1F"/>
<path d="M3062.66 10833.6C3062.66 10833.6 3048.65 10769.7 3313.33 10522.7C4157.04 9866.17 4512.97 9337.99 4458.72 8963.73C4440.63 8838.98 4376.96 8731.29 4282.74 8635.06C4431.98 8117.8 4980.14 7186.44 3327.14 7583.71C1760.97 7947.97 -430.51 8463.25 -304.741 7750.39C-149.687 7170.95 358.492 6486.15 1405.59 5730.02C1866.22 5380.95 1841.29 5267.34 1841.29 5267.34L2339.58 5077.87C2339.58 5077.87 2364.52 5191.48 2008.9 5495.07C1246.67 6032.74 518.002 6570.07 377.084 6999.57C250.302 7279.13 334.695 7449.43 251.315 7712.47C162.082 7948.79 515.714 8060.11 1091.76 7898.87C2243.83 7576.42 3433.45 7210.78 4114.38 7313.3C4847.51 7439.34 4897.79 7882.86 4584.79 8427.05C4665.42 8539.1 4740.09 8648.4 4769.64 8774.86C4858.28 9154.27 4540.98 9688.32 3729.81 10365.4C3546.97 10580.3 3560.98 10644.2 3560.98 10644.2L3062.68 10833.6H3062.66Z" fill="#1F1F1F"/>
<path d="M542.872 11791.8C542.872 11791.8 528.857 11727.9 788.941 11523.1C1715.44 10860.9 2556.39 10158.2 2515.42 9711.66C2507.21 9622.34 2463.75 9543.29 2443.62 9449.23C2528.84 9304.08 2887.32 9008.73 2574.68 9084.24C-1342.49 9879.85 -3413.18 8802.26 -1189.03 6800.09C-746.573 6378.88 -678.504 6225.45 -678.504 6225.45L-308.974 6084.91C-308.974 6084.91 -408.941 6249.65 -871.916 6669.79C-1577.4 7308.94 -2230.44 7976.58 -1913.83 8347.74C-1295.28 9023.36 -219.194 9640.64 2837.54 8781.86C3193.6 8689.82 3017.54 8959.2 2950.61 9125.14C2866.96 9279.53 2876.95 9389.43 2894.89 9494.36C2966.69 9914.07 2122.8 10727.8 1201.22 11361.7C898.366 11587.3 912.381 11651.2 912.381 11651.2L542.852 11791.8L542.872 11791.8Z" fill="#1F1F1F"/>
<path d="M4305.65 10361C4305.65 10361 4291.63 10297.1 4266.58 10183C5054.41 9501.18 5332.72 8973.52 5232.96 8586.91C5199.7 8458.07 5124.44 8344.85 5013.56 8245.95C5469.87 7274.9 4408.43 6724.33 1849.19 7278.26C-125.242 7711 1675.42 6057.6 2954.94 5146.09C3109.23 4908.21 3084.29 4794.6 3084.29 4794.6L3212.53 4745.84C3212.53 4745.84 3237.47 4859.45 3119.09 5087.84C2155.85 5889.41 449.791 7116.46 1605.81 7240.73C2231.62 7306.35 3371.98 6930.53 4119.24 6906.63C5431.33 6884.8 5212.89 7603.99 5120.72 8207.38C5221.94 8308.26 5287.38 8423.94 5313.54 8554.51C5392.06 8946.21 5117.21 9471.88 4394.86 10134.2C4419.89 10248.3 4433.93 10312.2 4433.93 10312.2L4305.69 10361H4305.65Z" fill="#1F1F1F"/>
<path d="M-480.028 12180.8C-480.028 12180.8 -494.043 12116.9 -519.095 12002.8C288.721 11440.9 1422.62 10604.4 1394.21 10270C1384.73 10158.5 1246.12 10102.8 925.828 10130.7C285.683 10012.6 -221.604 9844.04 -859.137 9725.04C-2438.56 9385.89 -3671.21 8698.02 -1993.77 7110.2C-1676.49 6728.12 -1701.4 6614.51 -1701.4 6614.51L-1573.16 6565.76C-1573.16 6565.76 -1548.23 6679.37 -1891.88 7072.4C-3682.41 8861.33 -2182.93 9693.54 282.241 9782.6C710.989 9807.49 627.608 10070.5 1101.54 10063.9C1408.87 10040.9 1542.26 10099.5 1549.22 10213.1C1570.1 10553.8 453.193 11389.2 -390.856 11954.1C-365.823 12068.2 -351.788 12132.1 -351.788 12132.1L-480.028 12180.9V12180.8Z" fill="#1F1F1F"/>
<path d="M2465.9 11060.6C2465.9 11060.6 2451.89 10996.7 2779.65 10731.9C3487.36 10171.1 3988.25 9596.19 4084.85 9170.28C4117.06 9028.32 4104.34 8902.89 4039.39 8800.06C4125.7 8436.67 4778.75 7769.08 3993.94 7836.17C2511.14 7937.4 181.16 8678.86 -532.482 8212.9C-1138.83 7807.35 -489.202 6909.73 702.544 6012.55C1200.29 5630.47 1285.37 5478.72 1285.37 5478.72L1504.26 5344.1C1504.26 5344.1 1381.09 5549.61 1002 5891.13C-441.972 7192.1 -751.048 7645.37 -402.257 8163.32C-204.693 8420.7 473.325 8509.89 1442.96 8213.42C3822.2 7482.14 5088.47 7680.15 4179.09 8701.9C4244.34 8811.15 4268.34 8936.15 4248.58 9076.47C4189.26 9497.47 3735.96 10056.5 3013.84 10639.3C2708.34 10899.1 2722.38 10963 2722.38 10963L2465.92 11060.6H2465.9Z" fill="#1F1F1F"/>
<path d="M2061.5 11214.3C2061.5 11214.3 2047.48 11150.4 2395.56 10885.1C3147.79 10325.5 3720.06 9707.22 3819.81 9271.98C3853.06 9126.91 3833.8 9002.17 3767.44 8898.49C3871.11 8562.36 4443.21 7954.49 3571.57 8054.59C2242.43 8213.03 277.279 8902.5 -441.709 8626.52C-1369.48 8256.44 -1420.78 7379.58 253.442 6197.96C751.373 5801.25 890.246 5622.27 890.246 5622.27L929.758 5680.01C929.758 5680.01 891.44 5747.66 392.78 6140.05C-1409.08 7433 -1539.69 8552.52 256.277 8592.44C1290.34 8589.54 2942.83 7975.63 3890.09 8005.79C4599.78 8025.08 3715.04 8708.5 3863.09 8996.86C3902.58 9102.79 3894.32 9227.88 3845.71 9366.65C3699.89 9782.94 3191.09 10322.3 2519.69 10835.4C2175.74 11101.7 2189.76 11165.6 2189.76 11165.6L2061.52 11214.4L2061.5 11214.3Z" fill="#1F1F1F"/>
<path d="M3901.24 10514.7C3901.24 10514.7 3887.23 10450.8 3862.18 10336.7C4679.13 9681.84 5028.51 9140.68 4986.85 8740.22C4972.95 8606.72 4915.62 8488.88 4817.68 8387.65C4880.22 7802.73 5344.47 6917.76 3653.41 7141.57C2651.56 7291.21 921.029 7978.22 697.116 7600.71C351.241 7096.09 1012.55 6251.85 2437.99 5333.87C2704.8 5061.99 2679.89 4948.38 2679.89 4948.38L2744.01 4924C2744.01 4924 2768.94 5037.61 2520.3 5303.58C1105.25 6245.51 276.124 7182.48 801.498 7647.74C868.332 7738.01 1149.28 7732.36 1456.08 7630.14C4396.73 6670.91 5438.18 7344.76 4892.65 8368.15C4984.19 8470.45 5035.63 8589.33 5044.81 8723.48C5072.29 9126.01 4719.23 9666.57 3926.32 10312.3C3951.35 10426.5 3965.38 10490.3 3965.38 10490.3L3901.26 10514.7L3901.24 10514.7Z" fill="#1F1F1F"/>
<path d="M-856.383 12323.9C-856.383 12323.9 -870.398 12260 -895.45 12146C-298.119 11642.4 867.946 10845.2 904.158 10507.1C916.229 10394.5 802.753 10332.8 500.827 10350C272.073 10379.2 83.7847 10378.5 -20.5974 10331.4C-226.445 10250.7 -302.068 10120.4 -551.318 10056.2C-1357.13 9813.19 -2070.26 9563.92 -2583.93 9152.03C-2647.83 9075.14 -2841.97 9047.74 -2905.87 8970.85C-3404.89 8625.66 -2902.57 7914.19 -2304.02 7225.28C-2052.81 6871.2 -2077.74 6757.64 -2077.74 6757.64L-2013.62 6733.26C-2013.62 6733.26 -1988.69 6846.87 -2250.78 7205.69C-3243.46 8289.62 -3033.16 9033.76 -2183.42 9476.85C-1545.38 9812.54 -363.515 9840.2 49.416 10268.8C113.455 10327.4 344.031 10332 634.008 10313.9C1798.29 10261.5 -9.2356 11454.9 -831.31 12121.6C-806.278 12235.7 -792.243 12299.6 -792.243 12299.6L-856.363 12323.9H-856.383Z" fill="#1F1F1F"/>
<path d="M-1260.79 12477.7C-1260.79 12477.7 -1274.8 12413.8 -1299.85 12299.7C-1324.89 12185.6 -1001.96 11948.7 -583.6 11659.5C27.7869 11195 683.77 10540.7 -60.5552 10577.9C-364.183 10587.4 -640.833 10585.4 -749.367 10535.4C-1544.36 10245.8 -2055.12 9847.27 -2534.15 9378.86C-2711.22 9214.89 -3139.97 9189.95 -3273.63 9009.46C-3549.76 8608.44 -3079.13 7966.83 -2634.44 7343.98C-2457.23 7024.98 -2482.16 6911.37 -2482.16 6911.37L-2418.04 6887C-2418.04 6887 -2393.11 7000.61 -2582.66 7325.73C-4118.92 9229.69 -2115.57 10000.4 -217.128 10507.4C47.8572 10482.5 211.741 10506 296.499 10563.8C550.75 10736.9 92.7573 11217.8 -484.99 11623.6C-902.417 11915.2 -1260.77 12161.2 -1235.71 12275.4C-1210.68 12389.5 -1196.65 12453.3 -1196.65 12453.3L-1260.77 12477.7H-1260.79Z" fill="#1F1F1F"/>
<path d="M1657.09 11368.1C1657.09 11368.1 1643.08 11304.2 1992.17 11046.8C2835.21 10461.4 3349.64 9890.55 3453.52 9454.32C3488.15 9308.91 3477.15 9178.43 3436.55 9058.18C3497.97 8791 4090.57 8276.5 3531.57 8301.14C2367.29 8353.52 402.137 9042.99 -397.822 8826.73C-1594.83 8515.67 -1924.16 7657.8 -167.61 6374.39C323.597 5966.17 435.716 5801.81 435.716 5801.81L563.955 5753.06C563.955 5753.06 456.941 5914.6 -37.1021 6319.55C-807.715 6958.54 -1550.52 7645.8 -1283.19 8006.78C-899.763 8468.21 -605.553 9165.96 1357.17 8679.81C2115.63 8492.59 2946.27 8205.65 3514.01 8221.06C3992.04 8256.14 3917.43 8559.21 3532.93 8897.02C3526.92 9003.59 3538.03 9098.65 3551.64 9189C3619.69 9640.77 3087.84 10299.3 2121.79 10995C1771.28 11255.5 1785.29 11319.4 1785.29 11319.4L1657.05 11368.1H1657.09Z" fill="#1F1F1F"/>
<path d="M1252.69 11521.9C1252.69 11521.9 1238.67 11458 1569.52 11215.9C2287.74 10704.2 2950.08 10062 3146.25 9607.89C3211.64 9456.52 3225.23 9326.04 3171.83 9228.27C3220.45 9026.64 3694.53 8615.04 3239.94 8686.71C-489.465 9266.37 -3271.24 8806.15 -561.2 6540C-82.9746 6123.7 31.3109 5955.6 31.3109 5955.6L95.4308 5931.22C95.4308 5931.22 -19.9081 6099.28 -500.584 6514.54C-1157.92 7077.24 -1819.76 7704.83 -1648.02 8058.78C-1298.7 8793.38 -346.988 9486.9 2744.37 8571.59C3230.66 8430.02 3485.78 8520.98 3431.16 8700.78C3336.07 8910.44 3191.71 9109.91 3265.66 9262.18C3305.57 9363.71 3284.55 9492.55 3215.37 9639.3C3007.8 10079.5 2366.78 10680.8 1637.83 11188.7C1302.81 11433.6 1316.83 11497.5 1316.83 11497.5L1252.71 11521.9H1252.69Z" fill="#1F1F1F"/>
</g>
</g>
<defs>
<clipPath id="clip0_121_240">
<rect width="1924" height="11430" fill="white"/>
</clipPath>
</defs>
</svg>
