<svg width="583" height="584" viewBox="0 0 583 584" fill="none" xmlns="http://www.w3.org/2000/svg">
<g clip-path="url(#clip0_202_727)">
<path d="M291.273 0.500122C271.354 0.500122 255.201 33.7548 255.201 114.261C255.201 194.767 291.273 291.95 291.273 291.95C291.273 291.95 327.344 194.767 327.344 114.261C327.344 33.7548 311.29 0.500122 291.273 0.500122Z" fill="#9747FF"/>
<path d="M582.322 291.951C582.322 271.998 549.125 255.817 468.756 255.817C388.388 255.817 291.372 291.951 291.372 291.951C291.372 291.951 388.388 328.084 468.756 328.084C549.125 328.084 582.322 311.904 582.322 291.951Z" fill="#9747FF"/>
<path d="M291.273 583.5C311.191 583.5 327.344 550.245 327.344 469.739C327.344 389.233 291.273 292.049 291.273 292.049C291.273 292.049 255.201 389.233 255.201 469.739C255.201 550.245 271.354 583.5 291.273 583.5Z" fill="#9747FF"/>
<path d="M0.322266 291.951C0.322266 311.904 33.52 328.084 113.888 328.084C194.256 328.084 291.273 291.951 291.273 291.951C291.273 291.951 194.256 255.817 113.888 255.817C33.52 255.817 0.322266 271.998 0.322266 291.951Z" fill="#9747FF"/>
<path d="M497.098 85.8701C483.027 71.7741 448.045 83.8848 391.262 140.765C334.479 197.646 291.372 291.95 291.372 291.95C291.372 291.95 385.514 248.769 442.297 191.888C499.08 135.008 511.17 99.9662 497.098 85.8701Z" fill="#9747FF"/>
<path d="M497.098 498.129C511.17 484.033 499.08 448.992 442.297 392.111C385.514 335.231 291.372 292.049 291.372 292.049C291.372 292.049 334.479 386.354 391.262 443.234C448.045 500.115 483.027 512.225 497.098 498.129Z" fill="#9747FF"/>
<path d="M85.5462 498.129C99.6181 512.225 134.6 500.115 191.382 443.234C248.165 386.354 291.273 292.049 291.273 292.049C291.273 292.049 197.13 335.231 140.347 392.111C83.5643 448.992 71.4744 484.033 85.5462 498.129Z" fill="#9747FF"/>
<path d="M85.5462 85.8701C71.4744 99.9662 83.5643 135.008 140.347 191.888C197.13 248.769 291.273 291.95 291.273 291.95C291.273 291.95 248.165 197.646 191.382 140.765C134.6 83.8848 99.6181 71.7741 85.5462 85.8701Z" fill="#9747FF"/>
</g>
<defs>
<clipPath id="clip0_202_727">
<rect width="582" height="583" fill="white" transform="translate(0.322266 0.5)"/>
</clipPath>
</defs>
</svg>
