<svg width="1925" height="674" viewBox="0 0 1925 674" fill="none" xmlns="http://www.w3.org/2000/svg">
<rect y="0.681641" width="1924" height="673" fill="#FFD900"/>
<g clip-path="url(#clip0_202_198)">
<mask id="mask0_202_198" style="mask-type:luminance" maskUnits="userSpaceOnUse" x="0" y="-486" width="1925" height="11429">
<path d="M1924.95 -485.652H0.546875V10943H1924.95V-485.652Z" fill="white"/>
</mask>
<g mask="url(#mask0_202_198)">
<path d="M1827.39 -905.917C1827.39 -905.917 1841.13 -845.121 1665.39 -678.309C946.183 -165.06 -61.7706 594.74 -194.547 974.532C-260.935 1164.43 -108.534 1259.27 329.936 1210.12C483.086 1303.8 685.349 1364.2 974.415 1391.39C3443.25 1465.91 5405.27 2010.61 3414.07 3871.38C3009.54 4277.06 3023.39 4389.94 3023.39 4389.94L2767 4488.23C2767 4488.23 2794.72 4356.97 3217.52 3947.8C4148.45 3126.9 4328.94 2464.53 3815.07 2068.34C3084.6 1548.23 1731.84 1404.59 -164.998 1566.05C-350.067 1581.8 -283.334 1459.65 -313.693 1385.43C-463.927 1334.82 -503.055 1232.9 -453.882 1094.7C-306.341 680.13 636.034 -60.9857 1369.42 -564.872C1584.75 -746.786 1571.02 -807.582 1571.02 -807.582L1827.42 -905.874L1827.39 -905.917Z" fill="#FAEF69"/>
<path d="M-1267.11 280.188C-1267.11 280.188 -1253.37 340.985 -1518.6 582.356C-2363.46 1226.48 -2720.96 1738.26 -2668.35 2094.92C-2650.81 2213.8 -2587.72 2315.45 -2494.07 2405.55C-2645.18 2902.88 -3196.19 3803.81 -1544.61 3391.49C20.1917 3012.43 2209.74 2476.7 2081.24 3160.51C1924.08 3717.34 1413.98 4381.87 365.682 5125.23C-95.5518 5467.96 -71.1274 5576.05 -71.1274 5576.05L-569.281 5766.98C-569.281 5766.98 -593.686 5658.89 -237.462 5361.68C525.596 4832.73 1255.14 4304.81 1397.59 3891.58C1525.31 3621.9 1441.76 3460.78 1526.1 3207.76C1616.16 2980.11 1263.62 2880.74 687.982 3046.17C-463.299 3377.08 -1652.23 3750.01 -2331.48 3665.52C-3062.72 3559.55 -3111.07 3136.65 -2796.38 2610.37C-2876.4 2504.87 -2950.46 2401.88 -2979.43 2281.58C-3066.33 1920.69 -2747.39 1404.03 -1934.92 740.883C-1751.51 531.959 -1765.24 471.163 -1765.24 471.163L-1267.09 280.232L-1267.11 280.188Z" fill="#FAEF69"/>
<path d="M1251.98 -685.343C1251.98 -685.343 1265.71 -624.546 1005.24 -423.605C77.7095 227.547 -764.618 915.763 -725.571 1341.72C-717.753 1426.9 -674.696 1501.59 -654.99 1591.12C-740.659 1731.53 -1099.7 2020.88 -787.321 1942.52C3125.89 1104.8 5188.26 2093.8 2959.9 4051.27C2516.53 4462.56 2447.94 4610.56 2447.94 4610.56L2078.51 4752.17C2078.51 4752.17 2178.98 4592.78 2642.83 4182.05C3349.64 3557.26 4004.25 2906.28 3689.79 2557.82C3075.18 1924.31 2003.67 1355.62 -1050.97 2236.71C-1406.75 2331.68 -1229.9 2070.8 -1162.4 1910.85C-1078.27 1761.64 -1087.79 1656.79 -1105.27 1556.86C-1175.18 1157.14 -329.47 362.731 593.018 -261.28C896.26 -482.847 882.529 -543.643 882.529 -543.643L1251.96 -685.256L1251.98 -685.343Z" fill="#FAEF69"/>
<path d="M2274.61 -1077.3C2274.61 -1077.3 2288.34 -1016.51 2312.85 -907.945C1504.2 -354.912 368.922 466.891 395.898 785.973C404.89 892.334 543.034 942.861 862.823 909.852C1501.29 1010.09 2006.93 1161.15 2642.79 1262.29C4217.87 1555.22 5445.39 2188.3 3764.44 3739C3446.15 4110.43 3470.57 4218.51 3470.57 4218.51L3342.37 4267.66C3342.37 4267.66 3317.97 4159.57 3662.59 3777.15C5457.23 2032.05 3963.99 1266.3 1503.76 1229.88C1075.9 1214.52 1160.23 961.501 687.131 977.207C380.263 1005.25 247.385 951.879 240.905 843.447C221.482 518.195 1339.79 -302.271 2184.63 -858.799C2160.12 -967.36 2146.39 -1028.16 2146.39 -1028.16L2274.59 -1077.3H2274.61Z" fill="#FAEF69"/>
<path d="M-670.524 51.5022C-670.524 51.5022 -656.793 112.298 -985.068 371.879C-1693.81 921.848 -2196.15 1481.14 -2294.34 1890.1C-2327.07 2026.4 -2314.9 2146.05 -2250.49 2243.05C-2338.17 2592.08 -2992.77 3243.01 -2209.14 3163.36C-728.67 3037.33 1600.08 2282.7 2310.46 2713.97C2913.99 3089.62 2261.85 3960.31 1068.59 4841.32C570.172 5216.32 563.955 5265.42 563.955 5265.42L255.568 5510.2C255.568 5510.2 274.707 5327.94 769.195 4963.21C2267.61 3985.68 2526.29 3251.99 2180.28 2763.85C1984.15 2521.75 1307.77 2449.95 338.685 2752.37C-2039.2 3498.24 -3302.29 3334.01 -2390.34 2339.57C-2455.02 2236.45 -2478.46 2117.49 -2458.14 1982.95C-2397.18 1579.43 -1942.41 1036.19 -1219.19 464.95C-913.191 210.547 -926.923 149.751 -926.923 149.751L-670.524 51.459V51.5022Z" fill="#FAEF69"/>
<path d="M-266.221 -103.444C-266.221 -103.444 -252.489 -42.6476 -601.037 217.839C-1354.19 767.549 -1927.99 1369.77 -2029.35 1787.71C-2063.14 1927.03 -2044.44 2045.86 -1978.62 2143.64C-2083.51 2466.9 -2657.06 3059.2 -1786.63 2946.28C-459.289 2768.6 1505.07 2070.85 2221.59 2320.42C3146.1 2655.81 3193.68 3492.84 1517.63 4655.22C1018.97 5044.2 929.738 5192.41 929.738 5192.41L801.539 5241.56C801.539 5241.56 878.944 5098.18 1378.31 4713.34C3182.22 3442.06 3317.22 2369.52 1524.76 2366.8C492.605 2389.97 -1159.38 3009.37 -2104.73 2999.23C-2813.05 2994.82 -1927.1 2324.17 -2073.67 2051.51C-2112.65 1951.07 -2103.86 1831.33 -2054.79 1697.78C-1907.51 1297.02 -1397.39 771.562 -725.125 267.848C-380.709 6.54151 -394.44 -54.2545 -394.44 -54.2545L-266.241 -103.401L-266.221 -103.444Z" fill="#FAEF69"/>
<path d="M-2105.46 601.514C-2105.46 601.514 -2091.73 662.31 -2067.23 770.871C-2885.37 1412.92 -3236.35 1937 -3196.45 2318.95C-3183.15 2446.24 -3126.4 2557.77 -3029.06 2652.57C-3093.91 3212.81 -3561 4067.79 -1872.13 3820.51C-871.511 3657.71 858.651 2966.95 1080.6 3323.31C1423.74 3798.76 760.142 4618.67 -666.474 5524.18C-933.93 5789.28 -909.525 5897.37 -909.525 5897.37L-973.625 5921.92C-973.625 5921.92 -998.029 5813.84 -748.76 5554.73C667.588 4626.52 1499.06 3714.67 976.582 3280.38C910.254 3195.46 629.796 3206.38 323.151 3310.11C-2616.03 4284.92 -3652.74 3661.47 -3103.98 2672.64C-3194.93 2576.67 -3245.79 2464.1 -3254.38 2336.03C-3280.14 1951.84 -2925.47 1428.28 -2131.37 795.466C-2155.89 686.905 -2169.6 626.109 -2169.6 626.109L-2105.5 601.557L-2105.46 601.514Z" fill="#FAEF69"/>
<path d="M2650.87 -1221.55C2650.87 -1221.55 2664.6 -1160.75 2689.1 -1052.19C2090.78 -559.09 923.56 225.822 886.032 549.607C873.516 657.521 986.526 714.218 1287.97 691.824C1516.42 659.419 1704.34 656.399 1808.34 699.288C2013.46 772.425 2088.41 895.441 2336.93 951.922C3140.25 1168.22 3851.02 1392.38 4362.03 1775.88C4425.5 1848.11 4619.16 1870.46 4682.63 1942.69C5179.29 2262.73 4674.94 2952.67 4074.65 3622.89C3822.44 3966.22 3846.85 4074.31 3846.85 4074.31L3782.75 4098.86C3782.75 4098.86 3758.34 3990.77 4021.44 3642.65C5016.78 2587.12 4809.96 1880.09 3963.64 1473.33C3328.2 1165.12 2148.62 1162.01 1738.22 760.516C1674.55 705.761 1444.42 705.933 1154.91 728.974C-7.45326 802.025 1801.69 -374.2 2625.02 -1027.64C2600.5 -1136.2 2586.79 -1197 2586.79 -1197L2650.89 -1221.55H2650.87Z" fill="#FAEF69"/>
<path d="M3055.17 -1376.49C3055.17 -1376.49 3068.9 -1315.7 3093.41 -1207.14C3117.93 -1098.57 2794.6 -865.746 2375.84 -581.096C1763.66 -125.061 1106.18 513.189 1849.27 462.878C2152.37 447.863 2428.51 444.368 2536.62 489.889C3328.94 750.98 3837.08 1121.8 4313.28 1560.05C4489.34 1713.27 4917.2 1728.64 5049.87 1898.47C5323.81 2276.27 4851.4 2898.78 4404.93 3502.85C4226.72 3811.23 4251.13 3919.32 4251.13 3919.32L4187.03 3943.87C4187.03 3943.87 4162.62 3835.79 4353.16 3521.32C5894.49 1671.29 3898.06 974.273 2005.25 527.213C1740.67 556.208 1577.17 536.964 1492.82 483.46C1239.76 322.991 1698.91 -145.686 2277.25 -544.938C2695.12 -831.831 3053.81 -1074.07 3029.29 -1182.63C3004.78 -1291.19 2991.05 -1351.98 2991.05 -1351.98L3055.15 -1376.54L3055.17 -1376.49Z" fill="#FAEF69"/>
<path d="M138.062 -258.389C138.062 -258.389 151.793 -197.593 -197.747 55.2991C-1041.65 631.459 -1557.51 1187.21 -1663 1606.18C-1698.16 1745.85 -1687.75 1870.29 -1647.71 1984.46C-1710.13 2241.02 -2303.76 2744.43 -1745.72 2709.87C-583.357 2636.82 1381.01 1939.07 2178.58 2129.96C3372.08 2403.61 3697.24 3217.04 1938.6 4478.27C1446.6 4878.12 1334.02 5037.42 1334.02 5037.42L1205.82 5086.57C1205.82 5086.57 1313.3 4930.07 1808.11 4533.28C2579.96 3907.37 3324.23 3235.85 3058.9 2896.1C2678.09 2462.68 2387.34 1801.64 426.236 2305.01C-331.597 2498.92 -1161.87 2789.57 -1728.52 2786.03C-2205.51 2761.95 -2129.79 2470.83 -1744.6 2140.36C-1738.16 2038.35 -1748.86 1947.74 -1762.08 1861.66C-1828.12 1431.21 -1294.53 791.324 -327.384 107.379C23.5535 -148.491 9.82218 -209.287 9.82218 -209.287L138.021 -258.433L138.062 -258.389Z" fill="#FAEF69"/>
<path d="M542.365 -413.378C542.365 -413.378 556.097 -352.582 224.845 -114.706C-494.184 388.534 -1157.96 1015.39 -1355.65 1453.31C-1421.55 1599.28 -1435.65 1724.23 -1382.77 1816.61C-1432.14 2010.26 -1907.05 2413.01 -1453 2335.56C2271.9 1707.92 5046.61 2092.85 2332.17 4312.23C1853.12 4719.51 1924.14 4805.2 1924.14 4805.2L1847.99 4804.08C1847.99 4804.08 1790.07 4744.1 2271.58 4337.77C2930.03 3786.98 3593.24 3174.15 3423.3 2839.23C3077.69 2144.02 2130.64 1500.04 -958.82 2435.84C-1444.8 2580.73 -1699.05 2498.83 -1643.8 2325.94C-1548.01 2123.7 -1403.1 1930.18 -1476.25 1786.11C-1515.69 1689.85 -1494.16 1566.31 -1424.49 1424.7C-1215.48 999.86 -573.149 412.524 156.553 -87.3063C491.977 -327.988 478.245 -388.784 478.245 -388.784L542.345 -413.335L542.365 -413.378Z" fill="#FAEF69"/>
</g>
</g>
<defs>
<clipPath id="clip0_202_198">
<rect width="1924" height="672" fill="white" transform="translate(1 1)"/>
</clipPath>
</defs>
</svg>
